<svg id="Capa_1" enable-background="new 0 0 508.019 508.019" height="512" viewBox="0 0 508.019 508.019" width="512" xmlns="http://www.w3.org/2000/svg"><g><path d="m153.637 334.013h344.382v40h-367zm341.833-236.479c-.69-14.654-6.312-28.076-15.225-38.644-42.321 12-75.435 36.173-100.955 70.387 21.489 12.531 46.853 16.656 71.011 11.855-1.058 4.84-2.792 9.569-5.218 14.034-2.168 3.989 1.569 8.636 5.88 7.212 26.831-8.864 45.925-34.728 44.507-64.844z" fill="#a7bdcd"/><path d="m480.249 58.893-102.73 71.62c3.88 26.86 1.56 53.18-5.87 77.52-5.77 18.9-18.77 34.87-36.34 43.91-15.18 7.82-32.27 12.4-50.38 13l.02 49.1c.01 10.7-8.39 19.44-18.96 19.97h-88.95l-42.05 79.78c-19.3 36.61-49.76 66.12-86.98 84.22l27.38-65.35-25.07 20.71c-23.945 18.608-52.719-11.199-34.73-34.57l49.4-60.33c-11.03 1.71-22.18 3.03-33.44 3.98 26.63-66.58 67.54-125.9 118.94-174.17.11-.11 119-110.98 153.14-142.82 50.2-46.8 127.17-46.95 177.49-2.3 4.86 4.31 4.46 12.01-.87 15.73z" fill="#ff9c9b"/><path d="m335.519 173.283c-3.23 36.3-21.6 69.59-50.59 91.66-31.59 24.05-66.21 44.32-103.19 60.14l-46.75 88.71c-19.3 36.61-49.76 66.12-86.98 84.22l62.32-148.75c-25.52 6.47-51.84 10.93-78.78 13.19 18.27-45.67 43.25-87.92 73.73-125.53 48.28 5.61 96.69 3.85 143.67-4.77 35.84-6.57 67.27-27.96 86.57-58.87z" fill="#99ebfa"/><path d="m384.939 491.478c-23.698-6.85-41.953-25.85-47.706-49.838-4.956-20.662-5.106-42.264-.416-63.015 20.637-5.11 42.139-6.219 62.982-2.088 24.198 4.795 43.908 22.281 51.694 45.688 7.889 23.714 10.295 48.881 7.179 73.505-24.481 4.092-49.723 2.688-73.733-4.252zm-149.534-287.577c-28.02-3.351-55.81-9.146-83.032-17.372-16.854 15.665-32.6 32.506-47.099 50.399 48.281 5.605 96.697 3.843 143.674-4.773 35.838-6.573 67.274-27.959 86.566-58.869-27.574 23.816-63.931 34.942-100.109 30.615z" fill="#e0ef9b"/><path d="m240.959 384.013c-5.52 0-10-4.49-10-10s4.48-10 10-10c5.51 0 10 4.49 10 10s-4.49 10-10 10zm257.06-60h-204.67c1.112-3.16 1.693-6.517 1.691-9.965l-.017-39.803c15.745-1.682 30.798-6.17 44.862-13.408 19.673-10.123 34.736-28.304 41.326-49.88 6.554-21.457 9.176-43.532 7.846-65.819 10.466 4.179 26.636 8.719 46.122 7.886-1.564 4.866-.581 10.216 2.79 14.249 2.898 3.468 8.598 7.094 16.13 4.6 31.811-10.536 52.939-41.275 51.36-74.811-.65-13.785-5.019-26.826-12.697-38.162.979-2.184 1.574-4.554 1.719-7.025.361-6.177-2.091-12.08-6.729-16.194-26.3-23.337-60.242-36.01-95.521-35.661-35.529.342-69.417 13.885-95.421 38.134 0 0-169.148 158.362-176.645 166.407-42.124 45.203-75.063 97.075-97.906 154.176-2.37 5.954 1.405 13.938 10.121 13.679 2.999-.089 5.974-.53 8.954-.834l-33.48 40.887c-10.635 12.987-10.46 31.694.474 44.432 11.912 13.878 30.195 14.703 42.686 8.065l-12.227 29.184c-3.672 9.96 6.425 16.412 13.598 12.856 39.399-19.167 71.021-49.785 91.449-88.545l18.154-34.447h33.97c5.51 0 9.99-4.49 9.99-10s-4.48-10-9.99-10h-23.43l10.541-20h304.949v20h-202.06c-5.75 0-10.372 4.872-9.976 10.695.361 5.305 5.012 9.305 10.329 9.305h39.255c-3.394 19.83-2.747 40.402 1.943 59.958 6.567 27.382 27.509 49.266 54.653 57.113 15.886 4.591 44.373 10.219 78.158 4.509 4.354-.736 7.718-4.227 8.272-8.608 3.3-26.084.668-53.027-7.611-77.917-4.607-13.85-12.899-25.89-23.64-35.056h60.677c5.523 0 10-4.477 10-10v-40c.001-5.523-4.476-10-9.999-10zm-56.556-191.598c-14.34 1.735-28.812.069-42.276-4.819l33.925-23.653c6.096 8.296 8.981 18.411 8.351 28.472zm44.018-34.411c.963 20.451-9.573 39.495-26.555 49.768 5.607-18.825 2.134-39.31-9.405-55.27l28.358-19.771c4.575 7.66 7.177 16.254 7.602 25.273zm-205.528 2.807c-2.416-4.965-8.399-7.032-13.367-4.615-1.952.95-3.88 1.94-5.817 2.914l49.682-46.329c46.266-43.143 116.783-44.063 164.075-2.095l-102.722 71.619c-3.102 2.163-4.718 5.89-4.178 9.632 3.58 24.792 1.716 49.413-5.542 73.177-5.023 16.443-16.449 30.271-31.35 37.939-5.133 2.641-10.426 4.842-15.856 6.613 17.303-21.389 28.122-47.666 30.597-75.494.755-8.484 1.296-17.122 1.609-25.675.202-5.519-4.108-10.157-9.627-10.359-5.506-.209-10.157 4.108-10.359 9.627-.25 6.829-.661 13.709-1.206 20.518-25.008 20.167-57.32 29.513-89.3 25.689-21.561-2.578-43.048-6.665-64.098-12.169 30.947-26.63 65.436-49.416 102.844-67.623 4.966-2.418 7.032-8.403 4.615-13.369zm-125.064 96.889c25.905 7.506 52.564 12.928 79.328 16.129 14.763 1.766 29.586 1.129 43.92-1.744-9.736 4.774-20.154 8.245-30.993 10.232-40.383 7.406-81.362 9.562-122.081 6.458 9.469-10.796 19.414-21.171 29.826-31.075zm-110.938 247.97c-6.11 5.051-15.272 4.258-20.424-1.767-4.607-5.388-4.691-13.278-.2-18.763l47.003-57.4c7.783-1.262 15.528-2.692 23.223-4.319l-26.435 63.103zm82.19-36.534c-13.846 26.271-33.393 48.397-57.332 65.111l48.83-116.562c14.427-3.815 28.662-8.271 42.662-13.366zm138.874-85.123h-56.921c23.208-11.333 45.577-24.517 66.911-39.459l.011 29.456c.001 5.524-4.477 10.003-10.001 10.003zm13.858-67.03c-67.697 51.536-147.455 83.794-231.588 93.821 16.41-37.222 37.372-71.872 62.219-103.316 60.244 6.662 112.434-.212 141.249-5.497 23.868-4.378 45.992-14.923 64.307-30.215-8.115 17.635-20.471 33.243-36.187 45.207zm163.13 168.398c6.546 19.677 9.11 40.805 7.515 61.552-20.668 2.418-41.879.697-61.801-5.062-20.249-5.854-35.866-22.163-40.759-42.564-3.136-13.073-4.181-26.668-3.146-40.088l64.521 62.018c3.982 3.828 10.311 3.703 14.14-.28 3.827-3.981 3.701-10.312-.28-14.139l-64.377-61.879c13.738-1.609 27.145-1.147 40.037 1.407 20.581 4.079 37.498 19.036 44.15 39.035zm-36.984-370.368c0 5.523 4.477 10 10 10s10-4.477 10-10-4.477-10-10-10-10 4.477-10 10z"/></g></svg>